<?xml version="1.0" encoding="utf-8"?>
<!-- Generator: Adobe Illustrator 23.0.4, SVG Export Plug-In . SVG Version: 6.00 Build 0)  -->
<svg version="1.1" id="Layer_1" xmlns="http://www.w3.org/2000/svg" xmlns:xlink="http://www.w3.org/1999/xlink" x="0px" y="0px"
	 viewBox="0 0 153 59" style="enable-background:new 0 0 153 59;" xml:space="preserve">
<style type="text/css">
	.st0{fill:#FF4E00;}
	.st1{fill:#8B00FF;}
	.st2{fill:#0F1829;}
</style>
<g>
	<g>
		<g>
			<path class="st0" d="M26.3,54.48H5.02c-1.54,0-2.44-1.37-2.44-2.57c0-0.71,0.29-1.36,0.75-1.82l9.29-9.29L26.3,54.48z"/>
			<path class="st1" d="M5.02,54.48c-1.61,0-3.62-1.28-3.62-3.84V22.03c0-3.87-0.2-6.58,2.56-9.35L14.32,2.33l18.37,18.4L3.33,50.08
				c-0.47,0.47-0.75,1.11-0.75,1.82C2.58,53.1,3.48,54.48,5.02,54.48"/>
		</g>
	</g>
	<g>
		<path class="st2" d="M41.11,54.45c-2.22,0-3.86-1.57-3.86-3.92s1.7-3.92,3.91-3.92c1.57,0,2.71,0.83,3.25,1.84l-1.2,0.72
			c-0.46-0.78-1.09-1.25-2.1-1.25c-1.33,0-2.42,1-2.42,2.61c0,1.55,1.08,2.61,2.42,2.61c0.95,0,1.65-0.42,2.2-1.21l1.2,0.68
			C43.65,53.86,42.76,54.45,41.11,54.45z"/>
		<path class="st2" d="M48.04,54.45c-1.47,0-2.92-0.95-2.92-2.82c0-1.87,1.45-2.82,2.92-2.82c1.47,0,2.92,0.95,2.92,2.82
			C50.96,53.51,49.5,54.45,48.04,54.45z M49.58,51.63c0-0.98-0.74-1.55-1.54-1.55c-0.8,0-1.54,0.57-1.54,1.55
			c0,0.98,0.74,1.55,1.54,1.55C48.83,53.18,49.58,52.61,49.58,51.63z"/>
		<path class="st2" d="M51.41,54.3v-1.2c0,0,0.14,0.06,0.38,0.06c0.33,0,0.5-0.23,0.55-1.19l0.17-3.03h4.2v5.34h-1.36v-4.12h-1.66
			l-0.1,1.85c-0.08,1.54-0.51,2.34-1.71,2.34C51.63,54.38,51.41,54.3,51.41,54.3z"/>
		<path class="st2" d="M61.28,53.45c-0.38,0.67-1.02,1-1.79,1c-1.06,0-1.8-0.66-1.8-1.67c0-1.09,0.82-1.58,1.91-1.73l1.61-0.22
			v-0.27c0-0.52-0.32-0.81-1-0.81c-0.59,0-0.94,0.27-0.94,0.6c0,0.04,0,0.11,0.01,0.15l-1.28,0.14c-0.02-0.1-0.02-0.2-0.02-0.28
			c0-0.83,0.83-1.56,2.23-1.56c1.5,0,2.36,0.64,2.36,1.94v2.23c0,0.58,0.05,0.96,0.17,1.33h-1.35
			C61.33,54.09,61.28,53.8,61.28,53.45z M61.2,51.87v-0.1l-1.29,0.18c-0.58,0.09-0.89,0.3-0.89,0.75c0,0.43,0.34,0.65,0.76,0.65
			C60.57,53.35,61.2,52.9,61.2,51.87z"/>
		<path class="st2" d="M65.09,48.96v0.76c0.36-0.52,1.05-0.92,1.85-0.92c1.34,0,2.46,1.04,2.46,2.82c0,1.71-1.15,2.82-2.57,2.82
			c-0.75,0-1.35-0.32-1.73-0.81v2.86h-1.36v-7.54H65.09z M65.01,51.63c0,0.87,0.64,1.55,1.51,1.55c0.87,0,1.51-0.68,1.51-1.55
			c0-0.87-0.64-1.55-1.51-1.55C65.64,50.08,65.01,50.76,65.01,51.63z"/>
	</g>
	<g>
		<polygon class="st2" points="126.87,31.37 123.79,31.37 120.12,35.08 120.12,31.37 117.51,31.37 117.51,41.61 120.12,41.61 
			120.12,37.37 123.85,41.61 126.99,41.61 122.16,36.11 		"/>
		<path class="st2" d="M44.4,27.15h-6.57v14.45h2.73v-5.04h3.84c3.26,0,5.41-1.67,5.41-4.71S47.66,27.15,44.4,27.15 M44.32,34.13
			h-3.76v-4.54h3.76c1.9,0,2.77,0.91,2.77,2.27S46.22,34.13,44.32,34.13"/>
		<path class="st2" d="M55.96,31.08c-2.81,0-5.59,1.82-5.59,5.41c0,3.59,2.79,5.41,5.59,5.41c2.81,0,5.59-1.82,5.59-5.41
			C61.56,32.89,58.77,31.08,55.96,31.08 M55.96,39.46c-1.53,0-2.95-1.09-2.95-2.97c0-1.88,1.42-2.97,2.95-2.97
			c1.53,0,2.95,1.09,2.95,2.97C58.91,38.36,57.49,39.46,55.96,39.46"/>
		<path class="st2" d="M68.2,39.46c-1.57,0-2.73-1.14-2.73-2.97c0-1.82,1.2-2.97,2.73-2.97c0.93,0,1.73,0.43,2.37,1.4l2.23-1.28
			c-0.74-1.59-2.35-2.56-4.58-2.56c-2.91,0-5.39,2.15-5.39,5.41c0,3.26,2.35,5.41,5.39,5.41c2.19,0,3.65-0.99,4.69-2.75l-2.15-1.18
			C70.14,38.84,69.48,39.46,68.2,39.46"/>
		<path class="st2" d="M95.89,37.17c-0.12,1.57-0.43,1.92-0.97,1.92c-0.37,0-0.54-0.04-0.79-0.11l0.01,2.65c0,0,0.32,0.1,0.92,0.1
			c2.21,0,3.03-1.42,3.24-4.46l0.25-3.57h2.93v7.89h2.6V31.37h-7.76L95.89,37.17z"/>
		<path class="st2" d="M88.52,31.08c-2.97,0-5.39,2.17-5.39,5.41c0,3.24,2.42,5.41,5.26,5.41c2.25,0,3.67-0.85,4.71-2.6l-2.06-1.03
			c-0.64,0.81-1.22,1.4-2.6,1.4c-1.53,0-2.64-0.99-2.81-2.56h7.89V36.2C93.51,33.2,91.45,31.08,88.52,31.08 M85.67,35.12
			c0.37-1.16,1.4-2.06,2.77-2.06c1.45,0,2.42,0.78,2.66,2.06H85.67z"/>
		<path class="st2" d="M110.94,31.08c-2.97,0-5.39,2.17-5.39,5.41c0,3.24,2.42,5.41,5.26,5.41c2.25,0,3.67-0.85,4.71-2.6l-2.06-1.03
			c-0.64,0.81-1.22,1.4-2.6,1.4c-1.53,0-2.64-0.99-2.81-2.56h7.89V36.2C115.93,33.2,113.87,31.08,110.94,31.08 M108.09,35.12
			c0.37-1.16,1.4-2.06,2.77-2.06c1.45,0,2.42,0.78,2.66,2.06H108.09z"/>
		<polygon class="st2" points="73.71,33.64 76.77,33.64 76.77,41.61 79.37,41.61 79.37,33.64 82.43,33.64 82.43,31.37 73.71,31.37 
					"/>
		<path class="st2" d="M132.15,31.08c-2.81,0-5.59,1.82-5.59,5.41c0,3.59,2.79,5.41,5.59,5.41c2.81,0,5.59-1.82,5.59-5.41
			C137.75,32.89,134.96,31.08,132.15,31.08 M132.15,39.46c-1.53,0-2.95-1.09-2.95-2.97c0-1.88,1.42-2.97,2.95-2.97
			c1.53,0,2.95,1.09,2.95,2.97C135.11,38.36,133.68,39.46,132.15,39.46"/>
		<polygon class="st2" points="148.1,31.36 145.28,38.54 142.45,31.36 139.05,31.36 139.05,41.59 141.53,41.59 141.53,35.11 
			144.27,41.59 146.29,41.59 149.03,35.11 149.03,41.59 151.5,41.59 151.5,31.36 		"/>
	</g>
</g>
</svg>
